<?xml version="1.0" standalone="no"?>
<!DOCTYPE svg PUBLIC "-//W3C//DTD SVG 20010904//EN"
 "http://www.w3.org/TR/2001/REC-SVG-20010904/DTD/svg10.dtd">
<svg version="1.0" xmlns="http://www.w3.org/2000/svg"
 width="1024.000000pt" height="315.000000pt" viewBox="0 0 1024.000000 315.000000"
 preserveAspectRatio="xMidYMid meet">
<metadata>
Created by potrace 1.16, written by Peter Selinger 2001-2019
</metadata>
<g transform="translate(0.000000,315.000000) scale(0.100000,-0.100000)"
fill="#000000" stroke="none">
<path d="M1139 2703 c-45 -5 -130 -71 -199 -154 -65 -78 -180 -316 -180 -373
0 -7 -9 -33 -19 -57 -25 -56 -91 -370 -104 -494 -3 -22 -12 -67 -21 -100 -9
-33 -14 -71 -11 -85 3 -14 -4 -55 -16 -90 -11 -36 -23 -99 -26 -140 -2 -41 -8
-84 -13 -95 -31 -73 -80 -354 -87 -498 l-6 -133 28 -18 c37 -24 45 -11 45 74
0 36 5 93 10 127 15 90 19 119 29 210 5 45 14 90 19 100 5 10 15 50 21 88 7
39 22 108 34 155 12 47 21 110 22 140 l0 55 72 2 c145 4 289 74 414 204 111
115 184 243 226 394 3 11 14 49 25 85 28 92 36 309 15 407 -9 39 -26 87 -39
107 -40 61 -144 100 -239 89z m115 -67 c25 -11 41 -28 62 -72 26 -53 29 -71
33 -182 3 -130 -4 -178 -56 -352 -45 -148 -137 -296 -256 -412 -22 -21 -45
-38 -52 -38 -7 0 -23 -11 -36 -25 -13 -13 -29 -25 -36 -25 -7 0 -30 -9 -51
-20 -48 -25 -76 -33 -127 -34 -27 -1 -39 3 -37 12 1 6 5 44 8 84 3 39 12 87
19 107 8 20 16 56 19 81 10 88 19 131 27 136 5 3 9 17 9 31 0 14 6 51 14 82 8
31 17 75 20 98 2 23 13 55 24 70 11 15 29 56 42 91 41 119 106 227 178 299 52
52 90 72 155 82 4 0 23 -5 41 -13z"/>
<path d="M3944 2667 c-38 -21 -74 -73 -124 -181 -28 -58 -50 -109 -50 -114 0
-6 -13 -41 -29 -78 -16 -38 -43 -112 -60 -164 -18 -52 -36 -104 -41 -115 -5
-11 -16 -45 -24 -75 -45 -173 -95 -315 -114 -328 -18 -11 -19 -17 -10 -37 8
-19 6 -39 -10 -92 -12 -37 -24 -79 -27 -93 -4 -14 -13 -38 -20 -55 -7 -16 -20
-62 -28 -101 -8 -38 -24 -92 -36 -119 -26 -60 -63 -195 -68 -255 -4 -41 -2
-46 25 -62 17 -10 37 -18 46 -18 16 0 32 42 23 57 -6 10 19 144 38 203 32 100
93 302 124 417 10 35 20 66 24 69 4 4 51 9 104 11 54 2 120 11 147 19 27 8 51
14 53 14 6 0 -10 -145 -17 -155 -5 -5 -16 -55 -25 -110 -16 -93 -37 -188 -66
-293 -10 -37 -9 -45 6 -62 27 -30 40 -25 59 23 25 62 55 177 56 213 0 17 8 60
19 95 10 35 23 91 29 124 6 33 18 105 27 160 10 55 23 123 30 150 8 28 17 75
20 105 4 30 11 69 15 85 14 46 49 277 60 394 15 155 12 260 -8 300 -30 59
-103 93 -148 68z m77 -109 c12 -45 8 -151 -10 -313 -16 -139 -15 -132 -84
-512 -10 -56 -14 -63 -34 -63 -13 0 -52 -9 -86 -21 -34 -12 -71 -22 -82 -24
-11 -1 -37 -6 -57 -10 -20 -4 -41 -4 -46 -1 -11 7 0 70 22 126 8 19 24 71 36
115 25 88 77 249 91 280 8 19 42 107 76 200 18 50 88 189 117 232 28 44 43 41
57 -9z"/>
<path d="M8018 2512 c-78 -28 -169 -125 -227 -242 -18 -36 -37 -72 -42 -80 -5
-8 -14 -26 -19 -40 -6 -14 -15 -32 -20 -40 -6 -8 -23 -41 -38 -72 l-27 -57
-55 28 c-59 29 -91 28 -104 -4 -11 -29 15 -102 50 -144 19 -21 34 -43 34 -48
0 -5 -9 -26 -20 -48 -11 -22 -20 -45 -20 -53 0 -7 -7 -20 -15 -28 -8 -9 -17
-27 -20 -42 -3 -15 -21 -59 -40 -98 -19 -38 -35 -74 -35 -80 0 -5 -12 -31 -26
-58 -14 -27 -34 -72 -44 -100 -21 -60 -74 -167 -107 -215 -13 -19 -23 -49 -23
-67 0 -18 -4 -36 -10 -39 -16 -10 -11 -51 9 -76 16 -20 23 -22 38 -13 10 6 20
20 22 30 4 22 163 404 213 514 11 25 40 93 63 151 48 118 70 165 84 173 16 10
146 -23 156 -40 6 -9 20 -32 33 -52 44 -66 100 -187 135 -292 49 -143 67 -228
103 -490 17 -125 28 -161 55 -186 20 -18 21 -18 40 5 10 13 19 31 19 40 0 10
7 26 15 37 8 10 15 33 15 49 0 25 -4 30 -24 31 -14 1 -27 -4 -30 -12 -13 -33
-23 -6 -40 108 -21 139 -47 261 -69 328 -9 25 -30 92 -48 150 -18 58 -43 120
-56 138 -12 18 -27 49 -33 67 -6 19 -15 35 -19 35 -10 0 -31 46 -31 65 0 8 8
15 17 15 10 0 52 17 93 37 92 45 183 136 227 226 63 129 66 141 71 233 4 84 2
94 -24 145 -31 58 -69 98 -95 99 -8 0 -24 7 -35 15 -24 18 -38 18 -96 -3z
m135 -79 c19 -12 47 -90 47 -132 0 -78 -44 -200 -101 -277 -76 -104 -144 -153
-246 -180 -64 -17 -70 -14 -118 56 l-27 38 59 119 c52 104 66 130 92 179 42
77 146 191 187 204 27 8 89 4 107 -7z"/>
<path d="M1950 2352 c-33 -18 -44 -34 -95 -142 -17 -38 -305 -896 -374 -1120
-24 -74 -51 -157 -62 -184 -10 -27 -19 -53 -19 -58 0 -5 -13 -37 -29 -71 -43
-93 -70 -174 -64 -196 3 -11 16 -27 30 -37 33 -21 45 -9 72 76 19 61 35 106
98 270 13 36 28 79 32 95 5 17 13 41 19 55 6 14 32 91 58 173 l47 147 31 0
c18 0 79 16 136 35 57 19 112 35 123 35 17 0 18 -9 11 -217 -4 -120 -7 -231
-6 -248 0 -16 -6 -59 -13 -95 -8 -36 -14 -83 -14 -105 0 -22 -2 -49 -3 -60 -2
-13 8 -25 34 -39 41 -23 50 -19 54 21 1 16 5 57 8 93 15 178 24 364 31 675 3
143 9 294 13 335 3 41 6 178 7 304 l0 229 -25 18 c-40 28 -63 30 -100 11z m39
-362 c0 -237 -13 -425 -30 -446 -6 -7 -35 -22 -67 -35 -31 -12 -87 -37 -124
-55 -36 -18 -69 -30 -72 -26 -13 12 -5 63 14 100 12 22 29 68 40 103 28 92 47
152 82 249 16 47 33 99 38 115 4 17 19 56 34 89 14 32 26 68 26 79 0 11 10 35
21 54 16 26 24 31 30 21 5 -7 9 -119 8 -248z"/>
<path d="M9525 2352 c-11 -11 -38 -23 -60 -26 -83 -12 -281 -49 -355 -66 -25
-6 -58 -14 -75 -17 -16 -3 -34 -9 -40 -13 -5 -4 -36 -15 -67 -24 -74 -23 -132
-65 -158 -115 -24 -48 -25 -65 -4 -85 24 -24 35 -19 32 15 -4 57 91 104 292
145 41 8 84 19 95 24 11 4 27 8 35 8 8 -1 49 5 90 12 41 8 79 13 84 12 4 -2
22 2 40 7 17 6 74 13 126 17 52 3 101 7 108 9 7 3 12 21 12 43 0 49 -11 58
-80 67 -47 5 -58 3 -75 -13z"/>
<path d="M5712 2333 c-37 -7 -222 -213 -222 -247 0 -9 -6 -16 -14 -16 -22 0
-66 -66 -80 -120 -15 -58 -24 -70 -35 -51 -7 10 -15 3 -35 -25 -14 -21 -26
-44 -26 -50 0 -6 -8 -18 -18 -27 -9 -8 -26 -39 -37 -68 -11 -29 -28 -54 -37
-57 -10 -2 -18 -8 -18 -13 0 -4 -18 -28 -40 -53 -21 -26 -43 -54 -49 -64 -21
-37 -26 8 -26 216 0 205 -2 220 -23 267 -32 69 -59 95 -98 95 -26 0 -39 -9
-71 -47 -22 -27 -43 -55 -47 -63 -4 -8 -25 -46 -47 -85 -22 -38 -53 -99 -70
-135 -16 -36 -40 -86 -54 -111 -14 -26 -25 -54 -25 -62 0 -8 -11 -37 -25 -64
-28 -52 -55 -125 -115 -306 -42 -126 -43 -162 -8 -194 31 -28 52 -7 55 58 1
30 11 76 22 103 12 26 21 52 21 58 0 5 7 24 15 41 16 36 41 105 57 157 5 19
14 40 18 45 5 6 19 39 33 75 43 112 172 355 222 415 50 60 65 -15 62 -307 l-2
-226 24 -26 c35 -38 62 -33 110 19 22 24 41 49 41 55 0 5 6 10 14 10 15 0 158
208 170 248 4 12 11 22 16 22 8 0 15 11 57 93 16 31 55 83 118 158 16 20 41
51 55 69 46 61 130 140 149 140 31 0 52 -76 61 -223 9 -147 6 -275 -10 -381
-27 -188 -40 -273 -45 -296 -8 -35 -25 -119 -31 -155 -3 -16 -9 -39 -14 -50
-16 -34 -50 -148 -50 -164 0 -9 -16 -54 -35 -101 -37 -91 -44 -145 -21 -175
13 -18 15 -17 35 15 11 19 21 41 21 48 0 7 6 23 14 35 8 12 17 39 21 61 3 21
15 50 25 65 10 14 26 58 35 96 9 39 23 91 31 116 8 25 16 54 18 65 3 10 11 53
20 94 27 123 35 170 45 265 11 99 24 281 22 305 -1 8 -1 59 -1 113 1 177 -30
283 -96 325 -36 22 -40 23 -82 15z"/>
<path d="M2953 2289 c-57 -11 -111 -56 -171 -143 -45 -66 -122 -220 -122 -244
0 -7 -17 -9 -50 -5 -66 8 -75 -12 -30 -68 26 -32 31 -47 27 -72 -8 -46 -34
-153 -52 -217 -8 -30 -18 -71 -21 -90 -3 -19 -14 -50 -24 -70 -9 -19 -32 -93
-49 -165 -18 -71 -43 -166 -55 -210 -68 -235 -67 -315 4 -315 25 0 28 4 34 43
4 24 4 50 1 59 -5 14 -3 29 26 140 6 24 13 54 15 68 4 26 16 70 58 210 14 47
30 105 35 130 20 92 32 136 46 166 8 17 20 63 27 102 6 39 17 73 24 76 6 2 39
-43 75 -106 35 -60 88 -150 117 -199 28 -48 52 -99 52 -111 0 -29 29 -108 48
-131 9 -9 13 -19 10 -22 -5 -6 18 -93 47 -176 17 -49 51 -76 80 -65 12 4 16
13 12 29 -11 43 -57 170 -66 181 -5 6 -14 37 -21 69 -6 32 -18 70 -26 85 -8
15 -14 32 -14 39 0 23 -175 350 -227 423 -29 41 -52 82 -51 90 2 10 21 17 58
21 112 13 213 54 263 108 43 45 89 147 94 209 9 112 -67 182 -174 161z m88
-92 c7 -70 0 -101 -38 -166 -27 -45 -53 -74 -88 -97 -48 -32 -151 -68 -167
-58 -17 11 92 225 141 277 62 67 148 91 152 44z"/>
<path d="M6598 2100 c-99 -30 -219 -168 -265 -305 -40 -119 -44 -134 -48 -206
-3 -41 -10 -100 -16 -132 -9 -46 -9 -67 1 -100 23 -72 51 -130 92 -188 78
-112 230 -152 347 -93 169 84 379 431 366 603 -4 52 -32 138 -56 173 -11 14
-19 31 -19 38 0 15 -33 62 -79 112 -74 80 -227 127 -323 98z m185 -86 c25 -8
51 -22 58 -31 11 -13 8 -14 -27 -8 -21 4 -53 12 -70 18 -41 13 -66 3 -62 -25
4 -28 49 -51 133 -69 140 -30 169 -86 130 -253 -28 -121 -74 -199 -169 -289
-120 -113 -276 -115 -370 -6 -19 23 -42 57 -52 77 -23 49 -21 151 4 227 11 33
24 76 27 95 4 19 20 54 36 78 16 24 29 46 29 50 0 4 19 29 43 55 78 88 183
118 290 81z m-379 -754 c54 -48 116 -70 193 -71 72 -1 108 9 154 42 43 31 35
11 -13 -30 -59 -51 -105 -70 -166 -71 -57 0 -122 26 -157 64 -39 42 -67 96
-50 96 2 0 20 -14 39 -30z"/>
<path d="M9711 1752 c-6 -12 -36 -26 -78 -37 -70 -20 -229 -25 -429 -15 -87 4
-94 3 -133 -23 -33 -22 -41 -33 -41 -57 0 -40 18 -77 48 -96 32 -21 54 -3 29
24 -23 25 -21 49 5 63 21 11 60 10 238 -6 61 -6 170 -6 189 -1 9 3 36 7 61 10
63 8 148 32 166 46 19 16 18 55 -2 85 -19 30 -40 32 -53 7z"/>
<path d="M9725 1181 c-10 -34 -25 -41 -160 -77 -64 -16 -263 -40 -460 -55 -82
-6 -181 -18 -220 -26 -38 -8 -90 -17 -115 -20 -24 -3 -57 -11 -72 -19 -15 -8
-36 -14 -46 -14 -11 0 -30 -8 -43 -19 -13 -10 -28 -19 -34 -19 -14 -1 -31 -29
-23 -38 4 -3 42 1 85 10 152 32 170 34 328 52 28 3 97 7 155 10 273 11 425 31
550 70 102 32 121 49 110 98 -13 59 -43 84 -55 47z"/>
</g>
</svg>
